<mxfile host="app.diagrams.net" modified="2023-11-25T00:56:09.728Z" agent="Mozilla/5.0 (Macintosh; Intel Mac OS X 10_15_7) AppleWebKit/537.36 (KHTML, like Gecko) Chrome/119.0.0.0 Safari/537.36" etag="IuDwgVD3rpVBlxjMwK8z" version="22.1.4" type="github">
  <diagram id="R2lEEEUBdFMjLlhIrx00" name="Page-1">
    <mxGraphModel dx="4043" dy="3776" grid="1" gridSize="10" guides="1" tooltips="1" connect="1" arrows="1" fold="1" page="1" pageScale="1" pageWidth="1654" pageHeight="2336" math="0" shadow="0" extFonts="Permanent Marker^https://fonts.googleapis.com/css?family=Permanent+Marker">
      <root>
        <mxCell id="0" />
        <mxCell id="1" parent="0" />
        <mxCell id="CIKGRaYAHxVxTxBW3_EA-1" value="User" style="rounded=0;whiteSpace=wrap;html=1;" vertex="1" parent="1">
          <mxGeometry x="-25" y="10" width="110" height="60" as="geometry" />
        </mxCell>
        <mxCell id="CIKGRaYAHxVxTxBW3_EA-2" value="Address" style="rounded=0;whiteSpace=wrap;html=1;" vertex="1" parent="1">
          <mxGeometry x="-200" y="370" width="120" height="60" as="geometry" />
        </mxCell>
        <mxCell id="CIKGRaYAHxVxTxBW3_EA-4" value="Chef" style="rounded=0;whiteSpace=wrap;html=1;" vertex="1" parent="1">
          <mxGeometry x="550" y="-80" width="120" height="60" as="geometry" />
        </mxCell>
        <mxCell id="CIKGRaYAHxVxTxBW3_EA-6" value="Schedule" style="rounded=0;whiteSpace=wrap;html=1;" vertex="1" parent="1">
          <mxGeometry x="760" y="240" width="120" height="60" as="geometry" />
        </mxCell>
        <mxCell id="CIKGRaYAHxVxTxBW3_EA-7" value="Booking" style="rounded=0;whiteSpace=wrap;html=1;" vertex="1" parent="1">
          <mxGeometry x="450" y="290" width="120" height="60" as="geometry" />
        </mxCell>
        <mxCell id="CIKGRaYAHxVxTxBW3_EA-8" value="Payment" style="rounded=0;whiteSpace=wrap;html=1;" vertex="1" parent="1">
          <mxGeometry x="210" y="540" width="120" height="60" as="geometry" />
        </mxCell>
        <mxCell id="CIKGRaYAHxVxTxBW3_EA-9" value="Post" style="rounded=0;whiteSpace=wrap;html=1;" vertex="1" parent="1">
          <mxGeometry x="-30" y="-290" width="130" height="60" as="geometry" />
        </mxCell>
        <mxCell id="CIKGRaYAHxVxTxBW3_EA-10" value="Could be" style="rhombus;whiteSpace=wrap;html=1;" vertex="1" parent="1">
          <mxGeometry x="280" width="80" height="80" as="geometry" />
        </mxCell>
        <mxCell id="CIKGRaYAHxVxTxBW3_EA-15" value="" style="endArrow=none;html=1;rounded=0;entryX=1;entryY=0.5;entryDx=0;entryDy=0;exitX=0;exitY=0.5;exitDx=0;exitDy=0;" edge="1" parent="1" source="CIKGRaYAHxVxTxBW3_EA-10" target="CIKGRaYAHxVxTxBW3_EA-1">
          <mxGeometry relative="1" as="geometry">
            <mxPoint x="370" y="130" as="sourcePoint" />
            <mxPoint x="270" y="130" as="targetPoint" />
          </mxGeometry>
        </mxCell>
        <mxCell id="CIKGRaYAHxVxTxBW3_EA-16" value="1" style="resizable=0;html=1;whiteSpace=wrap;align=right;verticalAlign=bottom;" connectable="0" vertex="1" parent="CIKGRaYAHxVxTxBW3_EA-15">
          <mxGeometry x="1" relative="1" as="geometry">
            <mxPoint x="30" as="offset" />
          </mxGeometry>
        </mxCell>
        <mxCell id="CIKGRaYAHxVxTxBW3_EA-17" value="" style="endArrow=none;html=1;rounded=0;exitX=1;exitY=0.5;exitDx=0;exitDy=0;entryX=0;entryY=0.5;entryDx=0;entryDy=0;" edge="1" parent="1" source="CIKGRaYAHxVxTxBW3_EA-10" target="CIKGRaYAHxVxTxBW3_EA-4">
          <mxGeometry relative="1" as="geometry">
            <mxPoint x="400" y="170" as="sourcePoint" />
            <mxPoint x="560" y="170" as="targetPoint" />
          </mxGeometry>
        </mxCell>
        <mxCell id="CIKGRaYAHxVxTxBW3_EA-18" value="1" style="resizable=0;html=1;whiteSpace=wrap;align=right;verticalAlign=bottom;" connectable="0" vertex="1" parent="CIKGRaYAHxVxTxBW3_EA-17">
          <mxGeometry x="1" relative="1" as="geometry" />
        </mxCell>
        <mxCell id="CIKGRaYAHxVxTxBW3_EA-22" value="Has" style="rhombus;whiteSpace=wrap;html=1;" vertex="1" parent="1">
          <mxGeometry x="-180" y="150" width="80" height="80" as="geometry" />
        </mxCell>
        <mxCell id="CIKGRaYAHxVxTxBW3_EA-23" value="" style="endArrow=none;html=1;rounded=0;exitX=0.5;exitY=0;exitDx=0;exitDy=0;entryX=0;entryY=1;entryDx=0;entryDy=0;" edge="1" parent="1" source="CIKGRaYAHxVxTxBW3_EA-22" target="CIKGRaYAHxVxTxBW3_EA-1">
          <mxGeometry relative="1" as="geometry">
            <mxPoint x="170" y="310" as="sourcePoint" />
            <mxPoint x="330" y="310" as="targetPoint" />
          </mxGeometry>
        </mxCell>
        <mxCell id="CIKGRaYAHxVxTxBW3_EA-24" value="1" style="resizable=0;html=1;whiteSpace=wrap;align=right;verticalAlign=bottom;" connectable="0" vertex="1" parent="CIKGRaYAHxVxTxBW3_EA-23">
          <mxGeometry x="1" relative="1" as="geometry" />
        </mxCell>
        <mxCell id="CIKGRaYAHxVxTxBW3_EA-25" value="" style="endArrow=none;html=1;rounded=0;exitX=0.5;exitY=1;exitDx=0;exitDy=0;entryX=0.5;entryY=0;entryDx=0;entryDy=0;" edge="1" parent="1" source="CIKGRaYAHxVxTxBW3_EA-22" target="CIKGRaYAHxVxTxBW3_EA-2">
          <mxGeometry relative="1" as="geometry">
            <mxPoint x="170" y="310" as="sourcePoint" />
            <mxPoint x="330" y="310" as="targetPoint" />
          </mxGeometry>
        </mxCell>
        <mxCell id="CIKGRaYAHxVxTxBW3_EA-26" value="1" style="resizable=0;html=1;whiteSpace=wrap;align=right;verticalAlign=bottom;" connectable="0" vertex="1" parent="CIKGRaYAHxVxTxBW3_EA-25">
          <mxGeometry x="1" relative="1" as="geometry" />
        </mxCell>
        <mxCell id="CIKGRaYAHxVxTxBW3_EA-27" value="Make" style="rhombus;whiteSpace=wrap;html=1;" vertex="1" parent="1">
          <mxGeometry x="310" y="190" width="80" height="80" as="geometry" />
        </mxCell>
        <mxCell id="CIKGRaYAHxVxTxBW3_EA-30" value="" style="endArrow=none;html=1;rounded=0;exitX=0;exitY=0.5;exitDx=0;exitDy=0;entryX=1;entryY=1;entryDx=0;entryDy=0;" edge="1" parent="1" source="CIKGRaYAHxVxTxBW3_EA-27" target="CIKGRaYAHxVxTxBW3_EA-1">
          <mxGeometry relative="1" as="geometry">
            <mxPoint x="500" y="280" as="sourcePoint" />
            <mxPoint x="270" y="250" as="targetPoint" />
          </mxGeometry>
        </mxCell>
        <mxCell id="CIKGRaYAHxVxTxBW3_EA-31" value="1" style="resizable=0;html=1;whiteSpace=wrap;align=right;verticalAlign=bottom;" connectable="0" vertex="1" parent="CIKGRaYAHxVxTxBW3_EA-30">
          <mxGeometry x="1" relative="1" as="geometry">
            <mxPoint x="20" y="10" as="offset" />
          </mxGeometry>
        </mxCell>
        <mxCell id="CIKGRaYAHxVxTxBW3_EA-32" value="" style="endArrow=none;html=1;rounded=0;entryX=0;entryY=0;entryDx=0;entryDy=0;exitX=1;exitY=0.5;exitDx=0;exitDy=0;" edge="1" parent="1" source="CIKGRaYAHxVxTxBW3_EA-27" target="CIKGRaYAHxVxTxBW3_EA-7">
          <mxGeometry relative="1" as="geometry">
            <mxPoint x="340" y="220" as="sourcePoint" />
            <mxPoint x="500" y="220" as="targetPoint" />
          </mxGeometry>
        </mxCell>
        <mxCell id="CIKGRaYAHxVxTxBW3_EA-33" value="N" style="resizable=0;html=1;whiteSpace=wrap;align=right;verticalAlign=bottom;" connectable="0" vertex="1" parent="CIKGRaYAHxVxTxBW3_EA-32">
          <mxGeometry x="1" relative="1" as="geometry">
            <mxPoint x="10" y="-10" as="offset" />
          </mxGeometry>
        </mxCell>
        <mxCell id="CIKGRaYAHxVxTxBW3_EA-34" value="Make" style="rhombus;whiteSpace=wrap;html=1;" vertex="1" parent="1">
          <mxGeometry x="-50" y="520" width="80" height="80" as="geometry" />
        </mxCell>
        <mxCell id="CIKGRaYAHxVxTxBW3_EA-35" value="" style="endArrow=none;html=1;rounded=0;exitX=0.5;exitY=0;exitDx=0;exitDy=0;entryX=0.174;entryY=0.994;entryDx=0;entryDy=0;entryPerimeter=0;" edge="1" parent="1" source="CIKGRaYAHxVxTxBW3_EA-34" target="CIKGRaYAHxVxTxBW3_EA-1">
          <mxGeometry relative="1" as="geometry">
            <mxPoint x="620" y="480" as="sourcePoint" />
            <mxPoint x="370" y="360" as="targetPoint" />
          </mxGeometry>
        </mxCell>
        <mxCell id="CIKGRaYAHxVxTxBW3_EA-36" value="1" style="resizable=0;html=1;whiteSpace=wrap;align=right;verticalAlign=bottom;" connectable="0" vertex="1" parent="CIKGRaYAHxVxTxBW3_EA-35">
          <mxGeometry x="1" relative="1" as="geometry">
            <mxPoint x="20" y="18" as="offset" />
          </mxGeometry>
        </mxCell>
        <mxCell id="CIKGRaYAHxVxTxBW3_EA-37" value="" style="endArrow=none;html=1;rounded=0;entryX=-0.025;entryY=0.325;entryDx=0;entryDy=0;exitX=1;exitY=0.5;exitDx=0;exitDy=0;entryPerimeter=0;" edge="1" parent="1" source="CIKGRaYAHxVxTxBW3_EA-34" target="CIKGRaYAHxVxTxBW3_EA-8">
          <mxGeometry relative="1" as="geometry">
            <mxPoint x="460" y="420" as="sourcePoint" />
            <mxPoint x="570" y="490" as="targetPoint" />
          </mxGeometry>
        </mxCell>
        <mxCell id="CIKGRaYAHxVxTxBW3_EA-38" value="1" style="resizable=0;html=1;whiteSpace=wrap;align=right;verticalAlign=bottom;" connectable="0" vertex="1" parent="CIKGRaYAHxVxTxBW3_EA-37">
          <mxGeometry x="1" relative="1" as="geometry">
            <mxPoint x="3" y="1" as="offset" />
          </mxGeometry>
        </mxCell>
        <mxCell id="CIKGRaYAHxVxTxBW3_EA-39" value="Create" style="rhombus;whiteSpace=wrap;html=1;" vertex="1" parent="1">
          <mxGeometry x="780" y="20" width="80" height="80" as="geometry" />
        </mxCell>
        <mxCell id="CIKGRaYAHxVxTxBW3_EA-40" value="" style="endArrow=none;html=1;rounded=0;exitX=0.5;exitY=0;exitDx=0;exitDy=0;entryX=0.5;entryY=1;entryDx=0;entryDy=0;" edge="1" parent="1" source="CIKGRaYAHxVxTxBW3_EA-39" target="CIKGRaYAHxVxTxBW3_EA-4">
          <mxGeometry relative="1" as="geometry">
            <mxPoint x="830" y="240" as="sourcePoint" />
            <mxPoint x="580" y="120" as="targetPoint" />
          </mxGeometry>
        </mxCell>
        <mxCell id="CIKGRaYAHxVxTxBW3_EA-41" value="N" style="resizable=0;html=1;whiteSpace=wrap;align=right;verticalAlign=bottom;" connectable="0" vertex="1" parent="CIKGRaYAHxVxTxBW3_EA-40">
          <mxGeometry x="1" relative="1" as="geometry">
            <mxPoint x="20" y="20" as="offset" />
          </mxGeometry>
        </mxCell>
        <mxCell id="CIKGRaYAHxVxTxBW3_EA-42" value="" style="endArrow=none;html=1;rounded=0;entryX=0.5;entryY=0;entryDx=0;entryDy=0;exitX=0.5;exitY=1;exitDx=0;exitDy=0;" edge="1" parent="1" source="CIKGRaYAHxVxTxBW3_EA-39" target="CIKGRaYAHxVxTxBW3_EA-6">
          <mxGeometry relative="1" as="geometry">
            <mxPoint x="670" y="180" as="sourcePoint" />
            <mxPoint x="780" y="250" as="targetPoint" />
          </mxGeometry>
        </mxCell>
        <mxCell id="CIKGRaYAHxVxTxBW3_EA-43" value="N" style="resizable=0;html=1;whiteSpace=wrap;align=right;verticalAlign=bottom;" connectable="0" vertex="1" parent="CIKGRaYAHxVxTxBW3_EA-42">
          <mxGeometry x="1" relative="1" as="geometry">
            <mxPoint x="20" y="-10" as="offset" />
          </mxGeometry>
        </mxCell>
        <mxCell id="CIKGRaYAHxVxTxBW3_EA-45" value="Make" style="rhombus;whiteSpace=wrap;html=1;" vertex="1" parent="1">
          <mxGeometry x="350" y="-300" width="80" height="80" as="geometry" />
        </mxCell>
        <mxCell id="CIKGRaYAHxVxTxBW3_EA-46" value="" style="endArrow=none;html=1;rounded=0;exitX=1;exitY=0.5;exitDx=0;exitDy=0;" edge="1" parent="1" source="CIKGRaYAHxVxTxBW3_EA-45">
          <mxGeometry relative="1" as="geometry">
            <mxPoint x="990" y="130" as="sourcePoint" />
            <mxPoint x="610" y="-80" as="targetPoint" />
          </mxGeometry>
        </mxCell>
        <mxCell id="CIKGRaYAHxVxTxBW3_EA-47" value="1" style="resizable=0;html=1;whiteSpace=wrap;align=right;verticalAlign=bottom;" connectable="0" vertex="1" parent="CIKGRaYAHxVxTxBW3_EA-46">
          <mxGeometry x="1" relative="1" as="geometry">
            <mxPoint x="-30" as="offset" />
          </mxGeometry>
        </mxCell>
        <mxCell id="CIKGRaYAHxVxTxBW3_EA-48" value="" style="endArrow=none;html=1;rounded=0;entryX=1;entryY=0.5;entryDx=0;entryDy=0;" edge="1" parent="1" target="CIKGRaYAHxVxTxBW3_EA-9">
          <mxGeometry relative="1" as="geometry">
            <mxPoint x="350" y="-260" as="sourcePoint" />
            <mxPoint x="920" y="190" as="targetPoint" />
          </mxGeometry>
        </mxCell>
        <mxCell id="CIKGRaYAHxVxTxBW3_EA-49" value="N" style="resizable=0;html=1;whiteSpace=wrap;align=right;verticalAlign=bottom;" connectable="0" vertex="1" parent="CIKGRaYAHxVxTxBW3_EA-48">
          <mxGeometry x="1" relative="1" as="geometry">
            <mxPoint x="20" y="-10" as="offset" />
          </mxGeometry>
        </mxCell>
        <mxCell id="CIKGRaYAHxVxTxBW3_EA-53" value="Feedback" style="rhombus;whiteSpace=wrap;html=1;" vertex="1" parent="1">
          <mxGeometry x="130" y="320" width="80" height="80" as="geometry" />
        </mxCell>
        <mxCell id="CIKGRaYAHxVxTxBW3_EA-54" value="" style="endArrow=none;html=1;rounded=0;exitX=0;exitY=0.5;exitDx=0;exitDy=0;entryX=0.5;entryY=1;entryDx=0;entryDy=0;" edge="1" parent="1" source="CIKGRaYAHxVxTxBW3_EA-53" target="CIKGRaYAHxVxTxBW3_EA-1">
          <mxGeometry relative="1" as="geometry">
            <mxPoint x="252.5" y="230" as="sourcePoint" />
            <mxPoint x="27.5" y="70" as="targetPoint" />
          </mxGeometry>
        </mxCell>
        <mxCell id="CIKGRaYAHxVxTxBW3_EA-55" value="1" style="resizable=0;html=1;whiteSpace=wrap;align=right;verticalAlign=bottom;" connectable="0" vertex="1" parent="CIKGRaYAHxVxTxBW3_EA-54">
          <mxGeometry x="1" relative="1" as="geometry">
            <mxPoint x="20" y="20" as="offset" />
          </mxGeometry>
        </mxCell>
        <mxCell id="CIKGRaYAHxVxTxBW3_EA-56" value="" style="endArrow=none;html=1;rounded=0;exitX=1;exitY=0.5;exitDx=0;exitDy=0;entryX=0;entryY=0.5;entryDx=0;entryDy=0;" edge="1" parent="1" source="CIKGRaYAHxVxTxBW3_EA-53" target="CIKGRaYAHxVxTxBW3_EA-7">
          <mxGeometry relative="1" as="geometry">
            <mxPoint x="410" y="280" as="sourcePoint" />
            <mxPoint x="570" y="280" as="targetPoint" />
          </mxGeometry>
        </mxCell>
        <mxCell id="CIKGRaYAHxVxTxBW3_EA-57" value="1" style="resizable=0;html=1;whiteSpace=wrap;align=right;verticalAlign=bottom;" connectable="0" vertex="1" parent="CIKGRaYAHxVxTxBW3_EA-56">
          <mxGeometry x="1" relative="1" as="geometry" />
        </mxCell>
        <mxCell id="CIKGRaYAHxVxTxBW3_EA-58" value="Has" style="rhombus;whiteSpace=wrap;html=1;" vertex="1" parent="1">
          <mxGeometry x="460" y="450" width="80" height="80" as="geometry" />
        </mxCell>
        <mxCell id="CIKGRaYAHxVxTxBW3_EA-59" value="" style="endArrow=none;html=1;rounded=0;entryX=1;entryY=0.5;entryDx=0;entryDy=0;exitX=0.5;exitY=1;exitDx=0;exitDy=0;" edge="1" parent="1" source="CIKGRaYAHxVxTxBW3_EA-58" target="CIKGRaYAHxVxTxBW3_EA-8">
          <mxGeometry relative="1" as="geometry">
            <mxPoint x="380" y="641" as="sourcePoint" />
            <mxPoint x="557" y="640" as="targetPoint" />
          </mxGeometry>
        </mxCell>
        <mxCell id="CIKGRaYAHxVxTxBW3_EA-60" value="1" style="resizable=0;html=1;whiteSpace=wrap;align=right;verticalAlign=bottom;" connectable="0" vertex="1" parent="CIKGRaYAHxVxTxBW3_EA-59">
          <mxGeometry x="1" relative="1" as="geometry">
            <mxPoint x="3" y="1" as="offset" />
          </mxGeometry>
        </mxCell>
        <mxCell id="CIKGRaYAHxVxTxBW3_EA-61" value="" style="endArrow=none;html=1;rounded=0;entryX=0.5;entryY=1;entryDx=0;entryDy=0;exitX=0.5;exitY=0;exitDx=0;exitDy=0;" edge="1" parent="1" source="CIKGRaYAHxVxTxBW3_EA-58" target="CIKGRaYAHxVxTxBW3_EA-7">
          <mxGeometry relative="1" as="geometry">
            <mxPoint x="540" y="550" as="sourcePoint" />
            <mxPoint x="410" y="630" as="targetPoint" />
          </mxGeometry>
        </mxCell>
        <mxCell id="CIKGRaYAHxVxTxBW3_EA-62" value="1" style="resizable=0;html=1;whiteSpace=wrap;align=right;verticalAlign=bottom;" connectable="0" vertex="1" parent="CIKGRaYAHxVxTxBW3_EA-61">
          <mxGeometry x="1" relative="1" as="geometry">
            <mxPoint x="3" y="1" as="offset" />
          </mxGeometry>
        </mxCell>
        <mxCell id="CIKGRaYAHxVxTxBW3_EA-63" value="Chat" style="rhombus;whiteSpace=wrap;html=1;" vertex="1" parent="1">
          <mxGeometry x="280" y="-140" width="80" height="80" as="geometry" />
        </mxCell>
        <mxCell id="CIKGRaYAHxVxTxBW3_EA-64" value="" style="endArrow=none;html=1;rounded=0;exitX=0;exitY=0.5;exitDx=0;exitDy=0;entryX=1;entryY=0;entryDx=0;entryDy=0;" edge="1" parent="1" source="CIKGRaYAHxVxTxBW3_EA-63" target="CIKGRaYAHxVxTxBW3_EA-1">
          <mxGeometry relative="1" as="geometry">
            <mxPoint x="360" y="170" as="sourcePoint" />
            <mxPoint x="250" y="-120" as="targetPoint" />
          </mxGeometry>
        </mxCell>
        <mxCell id="CIKGRaYAHxVxTxBW3_EA-65" value="1" style="resizable=0;html=1;whiteSpace=wrap;align=right;verticalAlign=bottom;" connectable="0" vertex="1" parent="CIKGRaYAHxVxTxBW3_EA-64">
          <mxGeometry x="1" relative="1" as="geometry" />
        </mxCell>
        <mxCell id="CIKGRaYAHxVxTxBW3_EA-66" value="" style="endArrow=none;html=1;rounded=0;entryX=0;entryY=0;entryDx=0;entryDy=0;exitX=1;exitY=0.5;exitDx=0;exitDy=0;" edge="1" parent="1" source="CIKGRaYAHxVxTxBW3_EA-63" target="CIKGRaYAHxVxTxBW3_EA-4">
          <mxGeometry relative="1" as="geometry">
            <mxPoint x="440" y="-70" as="sourcePoint" />
            <mxPoint x="620" y="80" as="targetPoint" />
          </mxGeometry>
        </mxCell>
        <mxCell id="CIKGRaYAHxVxTxBW3_EA-67" value="N" style="resizable=0;html=1;whiteSpace=wrap;align=right;verticalAlign=bottom;" connectable="0" vertex="1" parent="CIKGRaYAHxVxTxBW3_EA-66">
          <mxGeometry x="1" relative="1" as="geometry">
            <mxPoint x="-10" y="-10" as="offset" />
          </mxGeometry>
        </mxCell>
        <mxCell id="CIKGRaYAHxVxTxBW3_EA-68" value="Has" style="rhombus;whiteSpace=wrap;html=1;" vertex="1" parent="1">
          <mxGeometry x="500" y="90" width="80" height="80" as="geometry" />
        </mxCell>
        <mxCell id="CIKGRaYAHxVxTxBW3_EA-69" value="" style="endArrow=none;html=1;rounded=0;exitX=0.5;exitY=0;exitDx=0;exitDy=0;entryX=0.133;entryY=1.022;entryDx=0;entryDy=0;entryPerimeter=0;" edge="1" parent="1" source="CIKGRaYAHxVxTxBW3_EA-68" target="CIKGRaYAHxVxTxBW3_EA-4">
          <mxGeometry relative="1" as="geometry">
            <mxPoint x="620" y="200" as="sourcePoint" />
            <mxPoint x="400" y="30" as="targetPoint" />
          </mxGeometry>
        </mxCell>
        <mxCell id="CIKGRaYAHxVxTxBW3_EA-70" value="1" style="resizable=0;html=1;whiteSpace=wrap;align=right;verticalAlign=bottom;" connectable="0" vertex="1" parent="CIKGRaYAHxVxTxBW3_EA-69">
          <mxGeometry x="1" relative="1" as="geometry">
            <mxPoint x="20" y="20" as="offset" />
          </mxGeometry>
        </mxCell>
        <mxCell id="CIKGRaYAHxVxTxBW3_EA-71" value="" style="endArrow=none;html=1;rounded=0;entryX=0.5;entryY=0;entryDx=0;entryDy=0;exitX=0.5;exitY=1;exitDx=0;exitDy=0;" edge="1" parent="1" source="CIKGRaYAHxVxTxBW3_EA-68" target="CIKGRaYAHxVxTxBW3_EA-7">
          <mxGeometry relative="1" as="geometry">
            <mxPoint x="460" y="140" as="sourcePoint" />
            <mxPoint x="640" y="340" as="targetPoint" />
          </mxGeometry>
        </mxCell>
        <mxCell id="CIKGRaYAHxVxTxBW3_EA-72" value="N" style="resizable=0;html=1;whiteSpace=wrap;align=right;verticalAlign=bottom;" connectable="0" vertex="1" parent="CIKGRaYAHxVxTxBW3_EA-71">
          <mxGeometry x="1" relative="1" as="geometry">
            <mxPoint x="20" y="-10" as="offset" />
          </mxGeometry>
        </mxCell>
        <mxCell id="CIKGRaYAHxVxTxBW3_EA-73" value="Interact" style="rhombus;whiteSpace=wrap;html=1;" vertex="1" parent="1">
          <mxGeometry x="90" y="-170" width="80" height="80" as="geometry" />
        </mxCell>
        <mxCell id="CIKGRaYAHxVxTxBW3_EA-74" value="" style="endArrow=none;html=1;rounded=0;exitX=0.5;exitY=1;exitDx=0;exitDy=0;entryX=0.75;entryY=0;entryDx=0;entryDy=0;" edge="1" parent="1" source="CIKGRaYAHxVxTxBW3_EA-73" target="CIKGRaYAHxVxTxBW3_EA-1">
          <mxGeometry relative="1" as="geometry">
            <mxPoint x="20" y="170" as="sourcePoint" />
            <mxPoint x="-310" y="10" as="targetPoint" />
          </mxGeometry>
        </mxCell>
        <mxCell id="CIKGRaYAHxVxTxBW3_EA-75" value="1" style="resizable=0;html=1;whiteSpace=wrap;align=right;verticalAlign=bottom;" connectable="0" vertex="1" parent="CIKGRaYAHxVxTxBW3_EA-74">
          <mxGeometry x="1" relative="1" as="geometry">
            <mxPoint x="-12" as="offset" />
          </mxGeometry>
        </mxCell>
        <mxCell id="CIKGRaYAHxVxTxBW3_EA-76" value="" style="endArrow=none;html=1;rounded=0;entryX=0.5;entryY=1;entryDx=0;entryDy=0;exitX=0.5;exitY=0;exitDx=0;exitDy=0;" edge="1" parent="1" source="CIKGRaYAHxVxTxBW3_EA-73" target="CIKGRaYAHxVxTxBW3_EA-9">
          <mxGeometry relative="1" as="geometry">
            <mxPoint x="100" y="-70" as="sourcePoint" />
            <mxPoint x="210" y="-80" as="targetPoint" />
          </mxGeometry>
        </mxCell>
        <mxCell id="CIKGRaYAHxVxTxBW3_EA-77" value="N" style="resizable=0;html=1;whiteSpace=wrap;align=right;verticalAlign=bottom;" connectable="0" vertex="1" parent="CIKGRaYAHxVxTxBW3_EA-76">
          <mxGeometry x="1" relative="1" as="geometry">
            <mxPoint x="-15" y="20" as="offset" />
          </mxGeometry>
        </mxCell>
        <mxCell id="CIKGRaYAHxVxTxBW3_EA-78" value="Post Id" style="ellipse;whiteSpace=wrap;html=1;" vertex="1" parent="1">
          <mxGeometry x="-140" y="-370" width="80" height="40" as="geometry" />
        </mxCell>
        <mxCell id="CIKGRaYAHxVxTxBW3_EA-79" value="Media" style="ellipse;whiteSpace=wrap;html=1;" vertex="1" parent="1">
          <mxGeometry x="-190" y="-310" width="80" height="30" as="geometry" />
        </mxCell>
        <mxCell id="CIKGRaYAHxVxTxBW3_EA-80" value="Like Count" style="ellipse;whiteSpace=wrap;html=1;" vertex="1" parent="1">
          <mxGeometry x="170" y="-340" width="80" height="40" as="geometry" />
        </mxCell>
        <mxCell id="CIKGRaYAHxVxTxBW3_EA-81" value="Comments" style="ellipse;whiteSpace=wrap;html=1;" vertex="1" parent="1">
          <mxGeometry x="140" y="-400" width="70" height="40" as="geometry" />
        </mxCell>
        <mxCell id="CIKGRaYAHxVxTxBW3_EA-82" value="Post date" style="ellipse;whiteSpace=wrap;html=1;" vertex="1" parent="1">
          <mxGeometry x="-50" y="-390" width="70" height="40" as="geometry" />
        </mxCell>
        <mxCell id="CIKGRaYAHxVxTxBW3_EA-83" value="User Id" style="ellipse;whiteSpace=wrap;html=1;" vertex="1" parent="1">
          <mxGeometry x="40" y="-400" width="70" height="40" as="geometry" />
        </mxCell>
        <mxCell id="CIKGRaYAHxVxTxBW3_EA-84" value="User Id" style="ellipse;whiteSpace=wrap;html=1;" vertex="1" parent="1">
          <mxGeometry x="560" y="-200" width="70" height="40" as="geometry" />
        </mxCell>
        <mxCell id="CIKGRaYAHxVxTxBW3_EA-85" value="Chef Id" style="ellipse;whiteSpace=wrap;html=1;" vertex="1" parent="1">
          <mxGeometry x="630" y="-230" width="70" height="40" as="geometry" />
        </mxCell>
        <mxCell id="CIKGRaYAHxVxTxBW3_EA-86" value="Cuisines" style="ellipse;whiteSpace=wrap;html=1;" vertex="1" parent="1">
          <mxGeometry x="710" y="-220" width="70" height="40" as="geometry" />
        </mxCell>
        <mxCell id="CIKGRaYAHxVxTxBW3_EA-87" value="Preferred cities" style="ellipse;whiteSpace=wrap;html=1;" vertex="1" parent="1">
          <mxGeometry x="750" y="-170" width="70" height="40" as="geometry" />
        </mxCell>
        <mxCell id="CIKGRaYAHxVxTxBW3_EA-88" value="Schedule Id" style="ellipse;whiteSpace=wrap;html=1;" vertex="1" parent="1">
          <mxGeometry x="740" y="-110" width="70" height="40" as="geometry" />
        </mxCell>
        <mxCell id="CIKGRaYAHxVxTxBW3_EA-89" value="Schedule Id" style="ellipse;whiteSpace=wrap;html=1;" vertex="1" parent="1">
          <mxGeometry x="890" y="180" width="70" height="40" as="geometry" />
        </mxCell>
        <mxCell id="CIKGRaYAHxVxTxBW3_EA-90" value="Chef Id" style="ellipse;whiteSpace=wrap;html=1;" vertex="1" parent="1">
          <mxGeometry x="930" y="230" width="70" height="40" as="geometry" />
        </mxCell>
        <mxCell id="CIKGRaYAHxVxTxBW3_EA-91" value="Schedule by day" style="ellipse;whiteSpace=wrap;html=1;" vertex="1" parent="1">
          <mxGeometry x="920" y="290" width="90" height="40" as="geometry" />
        </mxCell>
        <mxCell id="CIKGRaYAHxVxTxBW3_EA-92" value="Chef Id" style="ellipse;whiteSpace=wrap;html=1;" vertex="1" parent="1">
          <mxGeometry x="540" y="210" width="70" height="40" as="geometry" />
        </mxCell>
        <mxCell id="CIKGRaYAHxVxTxBW3_EA-93" value="User Id" style="ellipse;whiteSpace=wrap;html=1;" vertex="1" parent="1">
          <mxGeometry x="620" y="230" width="70" height="40" as="geometry" />
        </mxCell>
        <mxCell id="CIKGRaYAHxVxTxBW3_EA-94" value="Booking Id" style="ellipse;whiteSpace=wrap;html=1;" vertex="1" parent="1">
          <mxGeometry x="670" y="270" width="70" height="40" as="geometry" />
        </mxCell>
        <mxCell id="CIKGRaYAHxVxTxBW3_EA-95" value="Time" style="ellipse;whiteSpace=wrap;html=1;" vertex="1" parent="1">
          <mxGeometry x="660" y="330" width="70" height="40" as="geometry" />
        </mxCell>
        <mxCell id="CIKGRaYAHxVxTxBW3_EA-96" value="Price" style="ellipse;whiteSpace=wrap;html=1;" vertex="1" parent="1">
          <mxGeometry x="640" y="390" width="70" height="40" as="geometry" />
        </mxCell>
        <mxCell id="CIKGRaYAHxVxTxBW3_EA-97" value="Payment Id" style="ellipse;whiteSpace=wrap;html=1;" vertex="1" parent="1">
          <mxGeometry x="400" y="390" width="70" height="30" as="geometry" />
        </mxCell>
        <mxCell id="CIKGRaYAHxVxTxBW3_EA-98" value="Feedback Id" style="ellipse;whiteSpace=wrap;html=1;" vertex="1" parent="1">
          <mxGeometry x="560" y="380" width="70" height="40" as="geometry" />
        </mxCell>
        <mxCell id="CIKGRaYAHxVxTxBW3_EA-99" value="Feedback Id" style="ellipse;whiteSpace=wrap;html=1;" vertex="1" parent="1">
          <mxGeometry x="350" y="340" width="70" height="40" as="geometry" />
        </mxCell>
        <mxCell id="CIKGRaYAHxVxTxBW3_EA-100" value="Payment Id" style="ellipse;whiteSpace=wrap;html=1;" vertex="1" parent="1">
          <mxGeometry x="80" y="600" width="70" height="30" as="geometry" />
        </mxCell>
        <mxCell id="CIKGRaYAHxVxTxBW3_EA-101" value="Booking Id" style="ellipse;whiteSpace=wrap;html=1;" vertex="1" parent="1">
          <mxGeometry x="110" y="650" width="70" height="30" as="geometry" />
        </mxCell>
        <mxCell id="CIKGRaYAHxVxTxBW3_EA-102" value="Date" style="ellipse;whiteSpace=wrap;html=1;" vertex="1" parent="1">
          <mxGeometry x="175" y="680" width="70" height="30" as="geometry" />
        </mxCell>
        <mxCell id="CIKGRaYAHxVxTxBW3_EA-103" value="Transection Id" style="ellipse;whiteSpace=wrap;html=1;" vertex="1" parent="1">
          <mxGeometry x="260" y="680" width="90" height="40" as="geometry" />
        </mxCell>
        <mxCell id="CIKGRaYAHxVxTxBW3_EA-104" value="Status" style="ellipse;whiteSpace=wrap;html=1;" vertex="1" parent="1">
          <mxGeometry x="360" y="650" width="90" height="40" as="geometry" />
        </mxCell>
        <mxCell id="CIKGRaYAHxVxTxBW3_EA-105" value="User Id" style="ellipse;whiteSpace=wrap;html=1;" vertex="1" parent="1">
          <mxGeometry x="-270" y="280" width="90" height="40" as="geometry" />
        </mxCell>
        <mxCell id="CIKGRaYAHxVxTxBW3_EA-106" value="Address Id" style="ellipse;whiteSpace=wrap;html=1;" vertex="1" parent="1">
          <mxGeometry x="-350" y="310" width="90" height="40" as="geometry" />
        </mxCell>
        <mxCell id="CIKGRaYAHxVxTxBW3_EA-107" value="Street" style="ellipse;whiteSpace=wrap;html=1;" vertex="1" parent="1">
          <mxGeometry x="-420" y="350" width="90" height="40" as="geometry" />
        </mxCell>
        <mxCell id="CIKGRaYAHxVxTxBW3_EA-108" value="City" style="ellipse;whiteSpace=wrap;html=1;" vertex="1" parent="1">
          <mxGeometry x="-440" y="400" width="90" height="40" as="geometry" />
        </mxCell>
        <mxCell id="CIKGRaYAHxVxTxBW3_EA-109" value="Province" style="ellipse;whiteSpace=wrap;html=1;" vertex="1" parent="1">
          <mxGeometry x="-450" y="450" width="90" height="40" as="geometry" />
        </mxCell>
        <mxCell id="CIKGRaYAHxVxTxBW3_EA-110" value="Country" style="ellipse;whiteSpace=wrap;html=1;" vertex="1" parent="1">
          <mxGeometry x="-400" y="500" width="90" height="40" as="geometry" />
        </mxCell>
        <mxCell id="CIKGRaYAHxVxTxBW3_EA-111" value="ZipCode" style="ellipse;whiteSpace=wrap;html=1;" vertex="1" parent="1">
          <mxGeometry x="-300" y="500" width="90" height="40" as="geometry" />
        </mxCell>
        <mxCell id="CIKGRaYAHxVxTxBW3_EA-112" value="" style="endArrow=none;html=1;rounded=0;exitX=0.5;exitY=1;exitDx=0;exitDy=0;entryX=0.25;entryY=0;entryDx=0;entryDy=0;" edge="1" parent="1" source="CIKGRaYAHxVxTxBW3_EA-105" target="CIKGRaYAHxVxTxBW3_EA-2">
          <mxGeometry width="50" height="50" relative="1" as="geometry">
            <mxPoint x="320" y="290" as="sourcePoint" />
            <mxPoint x="370" y="240" as="targetPoint" />
          </mxGeometry>
        </mxCell>
        <mxCell id="CIKGRaYAHxVxTxBW3_EA-113" value="" style="endArrow=none;html=1;rounded=0;exitX=0.5;exitY=1;exitDx=0;exitDy=0;entryX=0;entryY=0;entryDx=0;entryDy=0;" edge="1" parent="1" source="CIKGRaYAHxVxTxBW3_EA-106" target="CIKGRaYAHxVxTxBW3_EA-2">
          <mxGeometry width="50" height="50" relative="1" as="geometry">
            <mxPoint x="-215" y="330" as="sourcePoint" />
            <mxPoint x="-160" y="380" as="targetPoint" />
          </mxGeometry>
        </mxCell>
        <mxCell id="CIKGRaYAHxVxTxBW3_EA-114" value="" style="endArrow=none;html=1;rounded=0;exitX=1;exitY=0.5;exitDx=0;exitDy=0;" edge="1" parent="1" source="CIKGRaYAHxVxTxBW3_EA-107">
          <mxGeometry width="50" height="50" relative="1" as="geometry">
            <mxPoint x="-295" y="360" as="sourcePoint" />
            <mxPoint x="-200" y="380" as="targetPoint" />
          </mxGeometry>
        </mxCell>
        <mxCell id="CIKGRaYAHxVxTxBW3_EA-115" value="" style="endArrow=none;html=1;rounded=0;exitX=1;exitY=0.5;exitDx=0;exitDy=0;entryX=0;entryY=0.5;entryDx=0;entryDy=0;" edge="1" parent="1" source="CIKGRaYAHxVxTxBW3_EA-108" target="CIKGRaYAHxVxTxBW3_EA-2">
          <mxGeometry width="50" height="50" relative="1" as="geometry">
            <mxPoint x="-320" y="380" as="sourcePoint" />
            <mxPoint x="-190" y="390" as="targetPoint" />
          </mxGeometry>
        </mxCell>
        <mxCell id="CIKGRaYAHxVxTxBW3_EA-116" value="" style="endArrow=none;html=1;rounded=0;exitX=1;exitY=0.5;exitDx=0;exitDy=0;entryX=0;entryY=0.75;entryDx=0;entryDy=0;" edge="1" parent="1" source="CIKGRaYAHxVxTxBW3_EA-109" target="CIKGRaYAHxVxTxBW3_EA-2">
          <mxGeometry width="50" height="50" relative="1" as="geometry">
            <mxPoint x="-340" y="430" as="sourcePoint" />
            <mxPoint x="-190" y="410" as="targetPoint" />
          </mxGeometry>
        </mxCell>
        <mxCell id="CIKGRaYAHxVxTxBW3_EA-117" value="" style="endArrow=none;html=1;rounded=0;exitX=0.5;exitY=0;exitDx=0;exitDy=0;" edge="1" parent="1" source="CIKGRaYAHxVxTxBW3_EA-110">
          <mxGeometry width="50" height="50" relative="1" as="geometry">
            <mxPoint x="-350" y="480" as="sourcePoint" />
            <mxPoint x="-200" y="430" as="targetPoint" />
          </mxGeometry>
        </mxCell>
        <mxCell id="CIKGRaYAHxVxTxBW3_EA-118" value="" style="endArrow=none;html=1;rounded=0;exitX=0.5;exitY=0;exitDx=0;exitDy=0;entryX=0;entryY=1;entryDx=0;entryDy=0;" edge="1" parent="1" source="CIKGRaYAHxVxTxBW3_EA-111" target="CIKGRaYAHxVxTxBW3_EA-2">
          <mxGeometry width="50" height="50" relative="1" as="geometry">
            <mxPoint x="-345" y="510" as="sourcePoint" />
            <mxPoint x="-190" y="440" as="targetPoint" />
          </mxGeometry>
        </mxCell>
        <mxCell id="CIKGRaYAHxVxTxBW3_EA-119" value="" style="endArrow=none;html=1;rounded=0;exitX=1;exitY=0;exitDx=0;exitDy=0;entryX=0;entryY=1;entryDx=0;entryDy=0;" edge="1" parent="1" source="CIKGRaYAHxVxTxBW3_EA-100" target="CIKGRaYAHxVxTxBW3_EA-8">
          <mxGeometry width="50" height="50" relative="1" as="geometry">
            <mxPoint x="205" y="670" as="sourcePoint" />
            <mxPoint x="260" y="600" as="targetPoint" />
          </mxGeometry>
        </mxCell>
        <mxCell id="CIKGRaYAHxVxTxBW3_EA-120" value="" style="endArrow=none;html=1;rounded=0;exitX=0.5;exitY=0;exitDx=0;exitDy=0;entryX=0.25;entryY=1;entryDx=0;entryDy=0;" edge="1" parent="1" source="CIKGRaYAHxVxTxBW3_EA-101" target="CIKGRaYAHxVxTxBW3_EA-8">
          <mxGeometry width="50" height="50" relative="1" as="geometry">
            <mxPoint x="150" y="614" as="sourcePoint" />
            <mxPoint x="220" y="610" as="targetPoint" />
          </mxGeometry>
        </mxCell>
        <mxCell id="CIKGRaYAHxVxTxBW3_EA-121" value="" style="endArrow=none;html=1;rounded=0;exitX=0.537;exitY=-0.089;exitDx=0;exitDy=0;entryX=0.5;entryY=1;entryDx=0;entryDy=0;exitPerimeter=0;" edge="1" parent="1" source="CIKGRaYAHxVxTxBW3_EA-102" target="CIKGRaYAHxVxTxBW3_EA-8">
          <mxGeometry width="50" height="50" relative="1" as="geometry">
            <mxPoint x="155" y="660" as="sourcePoint" />
            <mxPoint x="250" y="610" as="targetPoint" />
          </mxGeometry>
        </mxCell>
        <mxCell id="CIKGRaYAHxVxTxBW3_EA-122" value="" style="endArrow=none;html=1;rounded=0;exitX=0.5;exitY=0;exitDx=0;exitDy=0;entryX=0.5;entryY=1;entryDx=0;entryDy=0;" edge="1" parent="1" source="CIKGRaYAHxVxTxBW3_EA-103" target="CIKGRaYAHxVxTxBW3_EA-8">
          <mxGeometry width="50" height="50" relative="1" as="geometry">
            <mxPoint x="223" y="687" as="sourcePoint" />
            <mxPoint x="280" y="610" as="targetPoint" />
          </mxGeometry>
        </mxCell>
        <mxCell id="CIKGRaYAHxVxTxBW3_EA-123" value="" style="endArrow=none;html=1;rounded=0;exitX=0;exitY=0.5;exitDx=0;exitDy=0;entryX=0.5;entryY=1;entryDx=0;entryDy=0;" edge="1" parent="1" source="CIKGRaYAHxVxTxBW3_EA-104" target="CIKGRaYAHxVxTxBW3_EA-8">
          <mxGeometry width="50" height="50" relative="1" as="geometry">
            <mxPoint x="315" y="690" as="sourcePoint" />
            <mxPoint x="280" y="610" as="targetPoint" />
          </mxGeometry>
        </mxCell>
        <mxCell id="CIKGRaYAHxVxTxBW3_EA-124" value="" style="endArrow=none;html=1;rounded=0;entryX=1;entryY=0.5;entryDx=0;entryDy=0;exitX=0.021;exitY=0.981;exitDx=0;exitDy=0;exitPerimeter=0;" edge="1" parent="1" source="CIKGRaYAHxVxTxBW3_EA-7" target="CIKGRaYAHxVxTxBW3_EA-99">
          <mxGeometry width="50" height="50" relative="1" as="geometry">
            <mxPoint x="448" y="351" as="sourcePoint" />
            <mxPoint x="420" y="360" as="targetPoint" />
          </mxGeometry>
        </mxCell>
        <mxCell id="CIKGRaYAHxVxTxBW3_EA-125" value="" style="endArrow=none;html=1;rounded=0;entryX=0.5;entryY=0;entryDx=0;entryDy=0;exitX=0;exitY=1;exitDx=0;exitDy=0;" edge="1" parent="1" source="CIKGRaYAHxVxTxBW3_EA-7" target="CIKGRaYAHxVxTxBW3_EA-97">
          <mxGeometry width="50" height="50" relative="1" as="geometry">
            <mxPoint x="458" y="361" as="sourcePoint" />
            <mxPoint x="430" y="370" as="targetPoint" />
          </mxGeometry>
        </mxCell>
        <mxCell id="CIKGRaYAHxVxTxBW3_EA-126" value="" style="endArrow=none;html=1;rounded=0;entryX=0.5;entryY=0;entryDx=0;entryDy=0;exitX=0.814;exitY=0.993;exitDx=0;exitDy=0;exitPerimeter=0;" edge="1" parent="1" source="CIKGRaYAHxVxTxBW3_EA-7" target="CIKGRaYAHxVxTxBW3_EA-98">
          <mxGeometry width="50" height="50" relative="1" as="geometry">
            <mxPoint x="460" y="360" as="sourcePoint" />
            <mxPoint x="445" y="400" as="targetPoint" />
          </mxGeometry>
        </mxCell>
        <mxCell id="CIKGRaYAHxVxTxBW3_EA-127" value="" style="endArrow=none;html=1;rounded=0;entryX=0.522;entryY=0.01;entryDx=0;entryDy=0;exitX=1;exitY=1;exitDx=0;exitDy=0;entryPerimeter=0;" edge="1" parent="1" source="CIKGRaYAHxVxTxBW3_EA-7" target="CIKGRaYAHxVxTxBW3_EA-96">
          <mxGeometry width="50" height="50" relative="1" as="geometry">
            <mxPoint x="558" y="360" as="sourcePoint" />
            <mxPoint x="605" y="390" as="targetPoint" />
          </mxGeometry>
        </mxCell>
        <mxCell id="CIKGRaYAHxVxTxBW3_EA-128" value="" style="endArrow=none;html=1;rounded=0;entryX=0;entryY=0.5;entryDx=0;entryDy=0;exitX=1;exitY=0.5;exitDx=0;exitDy=0;" edge="1" parent="1" source="CIKGRaYAHxVxTxBW3_EA-7" target="CIKGRaYAHxVxTxBW3_EA-95">
          <mxGeometry width="50" height="50" relative="1" as="geometry">
            <mxPoint x="580" y="360" as="sourcePoint" />
            <mxPoint x="687" y="400" as="targetPoint" />
          </mxGeometry>
        </mxCell>
        <mxCell id="CIKGRaYAHxVxTxBW3_EA-129" value="" style="endArrow=none;html=1;rounded=0;entryX=0;entryY=0.5;entryDx=0;entryDy=0;exitX=1;exitY=0.5;exitDx=0;exitDy=0;" edge="1" parent="1" source="CIKGRaYAHxVxTxBW3_EA-7" target="CIKGRaYAHxVxTxBW3_EA-94">
          <mxGeometry width="50" height="50" relative="1" as="geometry">
            <mxPoint x="580" y="330" as="sourcePoint" />
            <mxPoint x="670" y="360" as="targetPoint" />
          </mxGeometry>
        </mxCell>
        <mxCell id="CIKGRaYAHxVxTxBW3_EA-130" value="" style="endArrow=none;html=1;rounded=0;entryX=0;entryY=1;entryDx=0;entryDy=0;" edge="1" parent="1" target="CIKGRaYAHxVxTxBW3_EA-93">
          <mxGeometry width="50" height="50" relative="1" as="geometry">
            <mxPoint x="570" y="320" as="sourcePoint" />
            <mxPoint x="680" y="300" as="targetPoint" />
          </mxGeometry>
        </mxCell>
        <mxCell id="CIKGRaYAHxVxTxBW3_EA-131" value="" style="endArrow=none;html=1;rounded=0;entryX=1;entryY=1;entryDx=0;entryDy=0;" edge="1" parent="1" target="CIKGRaYAHxVxTxBW3_EA-92">
          <mxGeometry width="50" height="50" relative="1" as="geometry">
            <mxPoint x="570" y="320" as="sourcePoint" />
            <mxPoint x="640" y="274" as="targetPoint" />
          </mxGeometry>
        </mxCell>
        <mxCell id="CIKGRaYAHxVxTxBW3_EA-132" value="" style="endArrow=none;html=1;rounded=0;exitX=1;exitY=0.5;exitDx=0;exitDy=0;entryX=0.004;entryY=0.459;entryDx=0;entryDy=0;entryPerimeter=0;" edge="1" parent="1" source="CIKGRaYAHxVxTxBW3_EA-6" target="CIKGRaYAHxVxTxBW3_EA-91">
          <mxGeometry width="50" height="50" relative="1" as="geometry">
            <mxPoint x="900" y="280" as="sourcePoint" />
            <mxPoint x="950" y="230" as="targetPoint" />
          </mxGeometry>
        </mxCell>
        <mxCell id="CIKGRaYAHxVxTxBW3_EA-133" value="" style="endArrow=none;html=1;rounded=0;entryX=0;entryY=0.5;entryDx=0;entryDy=0;" edge="1" parent="1" target="CIKGRaYAHxVxTxBW3_EA-90">
          <mxGeometry width="50" height="50" relative="1" as="geometry">
            <mxPoint x="880" y="270" as="sourcePoint" />
            <mxPoint x="930" y="318" as="targetPoint" />
          </mxGeometry>
        </mxCell>
        <mxCell id="CIKGRaYAHxVxTxBW3_EA-134" value="" style="endArrow=none;html=1;rounded=0;entryX=0.5;entryY=1;entryDx=0;entryDy=0;" edge="1" parent="1" target="CIKGRaYAHxVxTxBW3_EA-89">
          <mxGeometry width="50" height="50" relative="1" as="geometry">
            <mxPoint x="880" y="270" as="sourcePoint" />
            <mxPoint x="940" y="260" as="targetPoint" />
          </mxGeometry>
        </mxCell>
        <mxCell id="CIKGRaYAHxVxTxBW3_EA-135" value="" style="endArrow=none;html=1;rounded=0;entryX=0.5;entryY=1;entryDx=0;entryDy=0;" edge="1" parent="1" target="CIKGRaYAHxVxTxBW3_EA-84">
          <mxGeometry width="50" height="50" relative="1" as="geometry">
            <mxPoint x="610" y="-80" as="sourcePoint" />
            <mxPoint x="740" y="-140" as="targetPoint" />
          </mxGeometry>
        </mxCell>
        <mxCell id="CIKGRaYAHxVxTxBW3_EA-136" value="" style="endArrow=none;html=1;rounded=0;entryX=0.5;entryY=1;entryDx=0;entryDy=0;exitX=0.5;exitY=0;exitDx=0;exitDy=0;" edge="1" parent="1" source="CIKGRaYAHxVxTxBW3_EA-4" target="CIKGRaYAHxVxTxBW3_EA-85">
          <mxGeometry width="50" height="50" relative="1" as="geometry">
            <mxPoint x="620" y="-70" as="sourcePoint" />
            <mxPoint x="605" y="-150" as="targetPoint" />
          </mxGeometry>
        </mxCell>
        <mxCell id="CIKGRaYAHxVxTxBW3_EA-137" value="" style="endArrow=none;html=1;rounded=0;entryX=0;entryY=1;entryDx=0;entryDy=0;exitX=0.5;exitY=0;exitDx=0;exitDy=0;" edge="1" parent="1" source="CIKGRaYAHxVxTxBW3_EA-4" target="CIKGRaYAHxVxTxBW3_EA-86">
          <mxGeometry width="50" height="50" relative="1" as="geometry">
            <mxPoint x="620" y="-70" as="sourcePoint" />
            <mxPoint x="675" y="-180" as="targetPoint" />
          </mxGeometry>
        </mxCell>
        <mxCell id="CIKGRaYAHxVxTxBW3_EA-138" value="" style="endArrow=none;html=1;rounded=0;entryX=0;entryY=0.5;entryDx=0;entryDy=0;exitX=0.525;exitY=-0.01;exitDx=0;exitDy=0;exitPerimeter=0;" edge="1" parent="1" source="CIKGRaYAHxVxTxBW3_EA-4" target="CIKGRaYAHxVxTxBW3_EA-87">
          <mxGeometry width="50" height="50" relative="1" as="geometry">
            <mxPoint x="620" y="-70" as="sourcePoint" />
            <mxPoint x="730" y="-176" as="targetPoint" />
          </mxGeometry>
        </mxCell>
        <mxCell id="CIKGRaYAHxVxTxBW3_EA-139" value="" style="endArrow=none;html=1;rounded=0;entryX=0;entryY=0;entryDx=0;entryDy=0;exitX=0.5;exitY=0;exitDx=0;exitDy=0;" edge="1" parent="1" source="CIKGRaYAHxVxTxBW3_EA-4" target="CIKGRaYAHxVxTxBW3_EA-88">
          <mxGeometry width="50" height="50" relative="1" as="geometry">
            <mxPoint x="623" y="-71" as="sourcePoint" />
            <mxPoint x="760" y="-140" as="targetPoint" />
          </mxGeometry>
        </mxCell>
        <mxCell id="CIKGRaYAHxVxTxBW3_EA-141" value="" style="endArrow=none;html=1;rounded=0;exitX=0.75;exitY=0;exitDx=0;exitDy=0;entryX=0;entryY=0.5;entryDx=0;entryDy=0;" edge="1" parent="1" source="CIKGRaYAHxVxTxBW3_EA-9" target="CIKGRaYAHxVxTxBW3_EA-80">
          <mxGeometry width="50" height="50" relative="1" as="geometry">
            <mxPoint x="80" y="-280" as="sourcePoint" />
            <mxPoint x="130" y="-330" as="targetPoint" />
          </mxGeometry>
        </mxCell>
        <mxCell id="CIKGRaYAHxVxTxBW3_EA-142" value="" style="endArrow=none;html=1;rounded=0;exitX=0.75;exitY=0;exitDx=0;exitDy=0;entryX=0;entryY=1;entryDx=0;entryDy=0;" edge="1" parent="1" source="CIKGRaYAHxVxTxBW3_EA-9" target="CIKGRaYAHxVxTxBW3_EA-81">
          <mxGeometry width="50" height="50" relative="1" as="geometry">
            <mxPoint x="78" y="-280" as="sourcePoint" />
            <mxPoint x="180" y="-310" as="targetPoint" />
          </mxGeometry>
        </mxCell>
        <mxCell id="CIKGRaYAHxVxTxBW3_EA-143" value="" style="endArrow=none;html=1;rounded=0;exitX=0.75;exitY=0;exitDx=0;exitDy=0;entryX=0.5;entryY=1;entryDx=0;entryDy=0;" edge="1" parent="1" source="CIKGRaYAHxVxTxBW3_EA-9" target="CIKGRaYAHxVxTxBW3_EA-83">
          <mxGeometry width="50" height="50" relative="1" as="geometry">
            <mxPoint x="78" y="-280" as="sourcePoint" />
            <mxPoint x="160" y="-356" as="targetPoint" />
          </mxGeometry>
        </mxCell>
        <mxCell id="CIKGRaYAHxVxTxBW3_EA-144" value="" style="endArrow=none;html=1;rounded=0;exitX=0.75;exitY=0;exitDx=0;exitDy=0;entryX=1;entryY=1;entryDx=0;entryDy=0;" edge="1" parent="1" source="CIKGRaYAHxVxTxBW3_EA-9" target="CIKGRaYAHxVxTxBW3_EA-82">
          <mxGeometry width="50" height="50" relative="1" as="geometry">
            <mxPoint x="78" y="-280" as="sourcePoint" />
            <mxPoint x="85" y="-350" as="targetPoint" />
          </mxGeometry>
        </mxCell>
        <mxCell id="CIKGRaYAHxVxTxBW3_EA-145" value="" style="endArrow=none;html=1;rounded=0;exitX=0;exitY=0;exitDx=0;exitDy=0;entryX=1;entryY=1;entryDx=0;entryDy=0;" edge="1" parent="1" source="CIKGRaYAHxVxTxBW3_EA-9" target="CIKGRaYAHxVxTxBW3_EA-78">
          <mxGeometry width="50" height="50" relative="1" as="geometry">
            <mxPoint x="78" y="-280" as="sourcePoint" />
            <mxPoint x="20" y="-346" as="targetPoint" />
          </mxGeometry>
        </mxCell>
        <mxCell id="CIKGRaYAHxVxTxBW3_EA-146" value="" style="endArrow=none;html=1;rounded=0;exitX=0;exitY=0;exitDx=0;exitDy=0;entryX=1;entryY=0.5;entryDx=0;entryDy=0;" edge="1" parent="1" source="CIKGRaYAHxVxTxBW3_EA-9" target="CIKGRaYAHxVxTxBW3_EA-79">
          <mxGeometry width="50" height="50" relative="1" as="geometry">
            <mxPoint x="-20" y="-280" as="sourcePoint" />
            <mxPoint x="-62" y="-326" as="targetPoint" />
          </mxGeometry>
        </mxCell>
      </root>
    </mxGraphModel>
  </diagram>
</mxfile>
